<?xml version="1.0" encoding="utf-8"?>
<!-- Generator: Adobe Illustrator 19.0.0, SVG Export Plug-In . SVG Version: 6.00 Build 0)  -->
<svg version="1.0" id="Layer_1" xmlns="http://www.w3.org/2000/svg" xmlns:xlink="http://www.w3.org/1999/xlink" x="0px" y="0px"
	 viewBox="0 0 960 300" enable-background="new 0 0 960 300" xml:space="preserve">
<g>
	<path fill="#FFFFFF" d="M1.3,219.5h19.9v-89.8H0v-18.9h21.2v-6.3c0-40.9,30.8-45.9,45.9-45.9c6.8,0,11.6,0.8,11.6,0.8v20.2
		c0,0-3.3-0.8-9.1-0.8c-8.1,0-24,2.3-24,25.2v6.8h30.8v18.9H45.7v89.8h23.5v18.9H1.3V219.5z"/>
	<path fill="#FFFFFF" d="M166.6,160h8.1v-4.8c0-20.2-11.7-28.4-27.3-27.3c-47.8,3.5-70.9,1.8-70.9,1.8v-18.9c0,0,47-0.5,72.9-3
		c32.4-3.2,49.7,16.9,49.7,49.2v57c0,3.8,2,5.6,5.6,5.6h12.9v18.9h-25.5c-11.4,0-15.9-5.6-15.9-13.9v-1.8c0-5,1-8.3,1-8.3h-0.5
		c0,0-11.1,27-42.1,27c-21.2,0-42.4-12.4-42.4-38.6C92.1,162.7,145.4,160,166.6,160z M139.8,222.6c21.7,0,35.1-22.2,35.1-41.4v-5.3
		h-6.3c-11.6,0-51.7,0.5-51.7,25C116.8,212.2,125.2,222.6,139.8,222.6z"/>
	<path fill="#FFFFFF" d="M217.5,219.5h38.4V135c0-3.5-2-5.3-5.6-5.3h-15.6v-18.9h28.8c10.9,0,16.2,4.8,16.2,14.1v6.6
		c0,4-0.8,7.3-0.8,7.3h0.5c6.3-15.1,24.7-31,45.4-31c20.4,0,33.1,9.3,37.4,30h0.5c7.1-15.9,24.7-30,45.7-30
		c28.3,0,41.6,16.4,41.6,49v62.8h38.3v18.9h-62.8V162c0-17.9-3.3-32.1-22.5-32.1c-24,0-37.6,24.5-37.6,49.7v39.9h19.9v18.9H341V162
		c0-16.7-2.5-32.1-22.2-32.1c-24.2,0-38.4,25.7-38.4,50.7v38.9h20.2v18.9h-83V219.5z"/>
	<path fill="#FFFFFF" d="M488.3,219.5h19.9v-89.8h-21.2v-18.9h45.7v108.8h20.2v18.9h-64.6V219.5z M507.8,60.3h25.7v25h-25.7V60.3z"
		/>
	<path fill="#FFFFFF" d="M580.4,79.2h-21.2V60.3h45.7v140.3c0,10.9,2.5,18.2,13.6,18.2c4,0,26.5,0.8,26.5,0.8v18.9
		c0,0-25,0.8-30.8,0.8c-18.2,0-33.8-7.3-33.8-37.1V79.2z"/>
	<path fill="#FFFFFF" d="M645,219.5H665v-89.8h-21.2v-18.9h45.7v108.8h20.2v18.9H645V219.5z M664.5,60.3h25.7v25h-25.7V60.3z"/>
	<path fill="#FFFFFF" d="M800.5,160h8.1v-4.8c0-20.2-11.6-27.3-27.3-27.3c-20.2,0-36.6,12.4-36.6,12.4l-9.8-17.4
		c0,0,18.7-15.1,48.5-15.1c32.6,0,49.7,16.9,49.7,49.2v57c0,3.8,2,5.6,5.6,5.6h31.8v18.9H826c-11.4,0-15.9-5.6-15.9-13.9v-1.8
		c0-5,1-8.3,1-8.3h-0.5c0,0-11.1,27-42.1,27c-21.2,0-42.4-12.4-42.4-38.6C726.1,162.7,779.3,160,800.5,160z M773.8,222.6
		c21.7,0,35.1-22.2,35.1-41.4v-5.3h-6.3c-11.6,0-51.7,0.5-51.7,25C750.8,212.2,759.1,222.6,773.8,222.6z"/>
	<path fill="#FFFFFF" d="M870.4,219.5h19.2v-84.3c0-3.8-2-5.6-5.6-5.6h-15.9v-18.9h28.8c11.1,0,16.4,4.5,16.4,14.9v8.1
		c0,5-0.5,8.8-0.5,8.8h0.5c5.8-18.7,20.7-33.3,40.4-33.3c3.3,0,6.3,0.5,6.3,0.5V134c0,0-3-0.8-7.1-0.8c-27.3,0-38.9,27.5-38.9,52.5
		v33.8H933v18.9h-62.6V219.5z"/>
</g>
<g id="XMLID_1_">
</g>
<g id="XMLID_2_">
</g>
<g id="XMLID_3_">
</g>
<g id="XMLID_4_">
</g>
<g id="XMLID_5_">
</g>
</svg>
